<?xml version="1.0" standalone="no"?>
<!DOCTYPE svg PUBLIC "-//W3C//DTD SVG 20010904//EN" "http://www.w3.org/TR/2001/REC-SVG-20010904/DTD/svg10.dtd">
<!-- Created using Krita: http://krita.org -->
<svg xmlns="http://www.w3.org/2000/svg" 
    xmlns:xlink="http://www.w3.org/1999/xlink"
    xmlns:krita="http://krita.org/namespaces/svg/krita"
    xmlns:sodipodi="http://sodipodi.sourceforge.net/DTD/sodipodi-0.dtd"
    width="1687.5pt"
    height="337.5pt"
    viewBox="0 0 1687.5 337.5">
<defs>
  <linearGradient id="gradient0" gradientUnits="objectBoundingBox" x1="0" y1="0" x2="0.350550819345931" y2="1.70013820403599" spreadMethod="pad">
   <stop stop-color="#f4cae0" offset="0" stop-opacity="1"/>
   <stop stop-color="#d7b9d5" offset="0.230046942830086" stop-opacity="1"/>
   <stop stop-color="#ada7c9" offset="0.475884258747101" stop-opacity="1"/>
   <stop stop-color="#90a8c3" offset="0.755627036094666" stop-opacity="1"/>
   <stop stop-color="#64a6bd" offset="1" stop-opacity="1"/>
  </linearGradient>
  <linearGradient id="gradient1" gradientUnits="objectBoundingBox" x1="0" y1="0" x2="-0.0551172116129055" y2="1.46402064970181" spreadMethod="pad">
   <stop stop-color="#f4cae0" offset="0" stop-opacity="1"/>
   <stop stop-color="#d7b9d5" offset="0.230046942830086" stop-opacity="1"/>
   <stop stop-color="#ada7c9" offset="0.475884258747101" stop-opacity="1"/>
   <stop stop-color="#90a8c3" offset="0.755627036094666" stop-opacity="1"/>
   <stop stop-color="#64a6bd" offset="1" stop-opacity="1"/>
  </linearGradient>
  <linearGradient id="gradient2" gradientUnits="objectBoundingBox" x1="0" y1="0" x2="-0.0517198559644019" y2="1.63927955039779" spreadMethod="pad">
   <stop stop-color="#f4cae0" offset="0" stop-opacity="1"/>
   <stop stop-color="#d7b9d5" offset="0.230046942830086" stop-opacity="1"/>
   <stop stop-color="#ada7c9" offset="0.475884258747101" stop-opacity="1"/>
   <stop stop-color="#90a8c3" offset="0.755627036094666" stop-opacity="1"/>
   <stop stop-color="#64a6bd" offset="1" stop-opacity="1"/>
  </linearGradient>
  <linearGradient id="gradient3" gradientUnits="objectBoundingBox" x1="0" y1="0" x2="0.54727659232045" y2="1.6306453733623" spreadMethod="pad">
   <stop stop-color="#f4cae0" offset="0" stop-opacity="1"/>
   <stop stop-color="#d7b9d5" offset="0.230046942830086" stop-opacity="1"/>
   <stop stop-color="#ada7c9" offset="0.475884258747101" stop-opacity="1"/>
   <stop stop-color="#90a8c3" offset="0.755627036094666" stop-opacity="1"/>
   <stop stop-color="#64a6bd" offset="1" stop-opacity="1"/>
  </linearGradient>
  <linearGradient id="gradient4" gradientUnits="objectBoundingBox" x1="0" y1="0" x2="0.634438989790427" y2="1.67914631566781" spreadMethod="pad">
   <stop stop-color="#f4cae0" offset="0" stop-opacity="1"/>
   <stop stop-color="#d7b9d5" offset="0.230046942830086" stop-opacity="1"/>
   <stop stop-color="#ada7c9" offset="0.475884258747101" stop-opacity="1"/>
   <stop stop-color="#90a8c3" offset="0.755627036094666" stop-opacity="1"/>
   <stop stop-color="#64a6bd" offset="1" stop-opacity="1"/>
  </linearGradient>
  <linearGradient id="gradient5" gradientUnits="objectBoundingBox" x1="0" y1="0" x2="-0.104677199686257" y2="1.34329219259218" spreadMethod="pad">
   <stop stop-color="#f4cae0" offset="0" stop-opacity="1"/>
   <stop stop-color="#d7b9d5" offset="0.230046942830086" stop-opacity="1"/>
   <stop stop-color="#ada7c9" offset="0.475884258747101" stop-opacity="1"/>
   <stop stop-color="#90a8c3" offset="0.755627036094666" stop-opacity="1"/>
   <stop stop-color="#64a6bd" offset="1" stop-opacity="1"/>
  </linearGradient>
  <linearGradient id="gradient6" gradientUnits="objectBoundingBox" x1="0" y1="0" x2="-0.179071463994704" y2="1.39034639058466" spreadMethod="pad">
   <stop stop-color="#f4cae0" offset="0" stop-opacity="1"/>
   <stop stop-color="#d7b9d5" offset="0.230046942830086" stop-opacity="1"/>
   <stop stop-color="#ada7c9" offset="0.475884258747101" stop-opacity="1"/>
   <stop stop-color="#90a8c3" offset="0.755627036094666" stop-opacity="1"/>
   <stop stop-color="#64a6bd" offset="1" stop-opacity="1"/>
  </linearGradient>
  <linearGradient id="gradient7" gradientUnits="objectBoundingBox" x1="0" y1="0" x2="-0.0438915111442288" y2="1.65541331435997" spreadMethod="pad">
   <stop stop-color="#f4cae0" offset="0" stop-opacity="1"/>
   <stop stop-color="#d7b9d5" offset="0.230046942830086" stop-opacity="1"/>
   <stop stop-color="#ada7c9" offset="0.475884258747101" stop-opacity="1"/>
   <stop stop-color="#90a8c3" offset="0.755627036094666" stop-opacity="1"/>
   <stop stop-color="#64a6bd" offset="1" stop-opacity="1"/>
  </linearGradient>
  <linearGradient id="gradient8" gradientUnits="objectBoundingBox" x1="0" y1="0" x2="-0.0431933819299784" y2="1.46185483842697" spreadMethod="pad">
   <stop stop-color="#f4cae0" offset="0" stop-opacity="1"/>
   <stop stop-color="#d7b9d5" offset="0.230046942830086" stop-opacity="1"/>
   <stop stop-color="#ada7c9" offset="0.475884258747101" stop-opacity="1"/>
   <stop stop-color="#90a8c3" offset="0.755627036094666" stop-opacity="1"/>
   <stop stop-color="#64a6bd" offset="1" stop-opacity="1"/>
  </linearGradient>
  <linearGradient id="gradient9" gradientUnits="objectBoundingBox" x1="0" y1="0" x2="0.000958287165936045" y2="1.05678593021671" spreadMethod="pad">
   <stop stop-color="#ffd7cb" offset="0" stop-opacity="1"/>
   <stop stop-color="#d7b9d5" offset="0.147909969091415" stop-opacity="1"/>
   <stop stop-color="#ada7c9" offset="0.311897099018097" stop-opacity="1"/>
   <stop stop-color="#90a8c3" offset="0.501607716083527" stop-opacity="1"/>
   <stop stop-color="#64a6bd" offset="1" stop-opacity="1"/>
  </linearGradient>
 </defs>
<path id="shape0" transform="translate(1545.02900332499, 483.916115199466)" fill="url(#gradient0)" fill-rule="evenodd" stroke="#f4cae0" stroke-width="0.75" stroke-linecap="square" stroke-linejoin="bevel" d="M0 76.3258L104.502 0L188.99 84.0103L143.615 138.187L105.056 99.1259L104.399 98.7978L76.5385 122.139L1.13369 76.9306"/><path id="shape1" transform="translate(1191.92235496182, 516.018539596759)" fill="url(#gradient1)" fill-rule="evenodd" stroke="#f4cae0" stroke-width="0.75" stroke-linecap="square" stroke-linejoin="bevel" d="M0 77.835L127.424 0L274.74 87.8447L247.808 110.818L161.431 59.409L160.529 59.415L74.0216 133.103L1.06066 78.2327"/><path id="shape2" transform="translate(967.435891467373, 533.914259192322)" fill="url(#gradient2)" fill-rule="evenodd" stroke="#f4cae0" stroke-width="0.75" stroke-linecap="square" stroke-linejoin="bevel" d="M0 71.5259L102.68 0C131.061 22.4618 166.01 44.4235 194.391 66.8854C194.68 67.1144 195.529 73.237 194.578 73.6354C193.367 74.1428 193.31 67.4625 193.678 67.7542L130.5 109.167L80.2969 71.0103L78.7969 71.4791L41.6719 101.573L1.00255 72.8908"/><path id="shape3" transform="translate(823.647572054649, 565.996729440132)" fill="url(#gradient3)" fill-rule="evenodd" stroke="#f4cae0" stroke-width="0.75" stroke-linecap="square" stroke-linejoin="bevel" d="M0 30.2004L41.8125 0L106.988 47.9423L49.875 93.0832L0.304688 30.3879"/><path id="shape4" transform="translate(589.114196029384, 510.962710966763)" fill="url(#gradient4)" fill-rule="evenodd" stroke="#f4cae0" stroke-width="0.75" stroke-linecap="square" stroke-linejoin="bevel" d="M0.656515 33.5398L55.6396 0C104.122 32.8629 154.77 65.9016 203.252 98.7645C208.489 105.81 202.468 98.643 203.111 99.0793L176.44 134.892L106.298 66.0889L104.508 65.9583L61.5514 90.7512C41.5514 72.1887 20.0001 51.6675 0 33.6248"/><path id="shape5" transform="translate(411.819185418608, 549.803768477265)" fill="url(#gradient5)" fill-rule="evenodd" stroke="#f4cae0" stroke-width="0.75" stroke-linecap="square" stroke-linejoin="bevel" d="M0 45.4405L48.8626 0C59.8014 11.792 73.0455 23.6877 83.9844 35.4797C92.2078 42.8623 83.0049 35.3542 83.2734 35.6436L30.653 81.1875L0.421875 46.0264"/><path id="shape6" transform="translate(284.472697050105, 537.816903249202)" fill="url(#gradient6)" fill-rule="evenodd" stroke="#f4cae0" stroke-width="1" stroke-linecap="square" stroke-linejoin="bevel" d="M2.02061e-14 34.6626L44.5542 0C63.4194 19.9645 85.5052 41.1164 104.37 61.0808C110.596 69.1149 102.07 60.8677 102.531 61.3549L53.4173 105.378L0 34.7952"/><path id="shape7" transform="translate(156.693951169532, 554.848483164731)" fill="url(#gradient7)" fill-rule="evenodd" stroke="#f4cae0" stroke-width="1" stroke-linecap="square" stroke-linejoin="bevel" d="M0.222977 26.0074L36.6893 0C50.5818 8.93587 67.1063 19.1767 80.9989 28.1125C88.2099 33.7948 79.133 27.3003 79.516 27.5467L39.3296 66.2017L0 26.5764"/><path id="shape8" transform="translate(-2.82662250168657, 521.865143301573)" fill="url(#gradient8)" fill-rule="evenodd" stroke="#f4cae0" stroke-width="1" stroke-linecap="square" stroke-linejoin="bevel" d="M133.209 49.3616C133.416 49.4101 58.0268 0.618718 59.9713 0C59.9713 0.441942 -1.04699 54.7469 0.0136693 54.6585L2.41262 53.2783L26.5362 94.0597L41.7237 83.4191L42.6612 83.4191L65.7871 104.952L131.522 49.7366"/><path id="shape9" transform="translate(-2.77731064079757, 524.347883763885)" fill="url(#gradient9)" fill-rule="evenodd" stroke="#64a6bd" stroke-width="0.75" stroke-linecap="square" stroke-linejoin="bevel" d="M25.875 92.7254L42.4886 81.1538L65.625 103.413L141.349 39.8392L198.894 97.3846L271.195 28.035L340.545 119.517L405.468 61.972L445.307 107.713L569.251 0L653.356 78.2028L697.328 52.9709L768.447 122.469L815.663 59.021L876.16 135.748L955.838 72.3007L1011.91 112.14L1050.27 81.1538L1100.44 119.517L1186.02 63.4476L1268.65 125.42L1355.71 51.6434L1442.76 103.287L1531.29 26.5594L1624.25 82.6294L1652.29 59.021L1691.63 98.8601L1689.57 284.736L0.216651 283.898L0 48.2879L26.25 92.3504"/>
</svg>
