<?xml version="1.0" encoding="UTF-8" standalone="no"?>
<svg
   xmlns:dc="http://purl.org/dc/elements/1.1/"
   xmlns:cc="http://creativecommons.org/ns#"
   xmlns:rdf="http://www.w3.org/1999/02/22-rdf-syntax-ns#"
   xmlns:svg="http://www.w3.org/2000/svg"
   xmlns="http://www.w3.org/2000/svg"
   xml:space="preserve"
   viewBox="0 0 92.833 69.333999"
   height="69.334"
   width="92.833"
   y="0px"
   x="0px"
   id="Capa_1"
   version="1.1"><metadata
   id="metadata102"><rdf:RDF><cc:Work
       rdf:about=""><dc:format>image/svg+xml</dc:format><dc:type
         rdf:resource="http://purl.org/dc/dcmitype/StillImage" /><dc:title></dc:title></cc:Work></rdf:RDF></metadata><defs
   id="defs100">
	

		
		
		
	</defs>
<g
   transform="translate(0,-2)"
   id="g192"><path
     d="M 89.834,2 H 3 C 1.346,2 0,3.346 0,5 v 13.334 c 0,1.654 1.346,3 3,3 h 86.833 c 1.653,0 3,-1.346 3,-3 V 5 C 92.834,3.346 91.488,2 89.834,2 Z"
     id="path57" /><path
     d="M 89.834,27 H 3 c -1.654,0 -3,1.346 -3,3 v 13.334 c 0,1.654 1.346,3 3,3 h 86.833 c 1.653,0 3,-1.346 3,-3 V 30 c 0.001,-1.654 -1.345,-3 -2.999,-3 z"
     id="path59" /><path
     d="M 89.834,52 H 3 c -1.654,0 -3,1.346 -3,3 v 13.334 c 0,1.654 1.346,3 3,3 h 86.833 c 1.653,0 3,-1.346 3,-3 V 55 c 0.001,-1.655 -1.345,-3 -2.999,-3 z"
     id="path61" /></g>
<g
   transform="translate(0,-11.75)"
   id="g67">
</g>
<g
   transform="translate(0,-11.75)"
   id="g69">
</g>
<g
   transform="translate(0,-11.75)"
   id="g71">
</g>
<g
   transform="translate(0,-11.75)"
   id="g73">
</g>
<g
   transform="translate(0,-11.75)"
   id="g75">
</g>
<g
   transform="translate(0,-11.75)"
   id="g77">
</g>
<g
   transform="translate(0,-11.75)"
   id="g79">
</g>
<g
   transform="translate(0,-11.75)"
   id="g81">
</g>
<g
   transform="translate(0,-11.75)"
   id="g83">
</g>
<g
   transform="translate(0,-11.75)"
   id="g85">
</g>
<g
   transform="translate(0,-11.75)"
   id="g87">
</g>
<g
   transform="translate(0,-11.75)"
   id="g89">
</g>
<g
   transform="translate(0,-11.75)"
   id="g91">
</g>
<g
   transform="translate(0,-11.75)"
   id="g93">
</g>
<g
   transform="translate(0,-11.75)"
   id="g95">
</g>
</svg>
